<svg width="123" height="26" viewBox="0 0 123 26" fill="none" xmlns="http://www.w3.org/2000/svg">
<path d="M20.1059 11.1614C19.3263 8.63364 17.4717 6.67821 14.9009 5.90546C13.7275 5.55266 12.4255 5.53362 11.222 5.73006C11.2132 5.73152 11.2042 5.73105 11.1957 5.7287C11.1871 5.72635 11.1791 5.72217 11.1724 5.71645C11.1656 5.71073 11.1601 5.70361 11.1564 5.69557C11.1526 5.68754 11.1507 5.67879 11.1506 5.66993V0.707686C11.1506 0.699676 11.1536 0.691945 11.159 0.686009C11.1644 0.680074 11.1718 0.676367 11.1798 0.675616C14.1702 0.364912 16.9021 0.96861 19.3755 2.48672C22.4235 4.35896 24.6508 7.56021 25.2204 11.1283C25.222 11.138 25.2215 11.148 25.2189 11.1576C25.2163 11.1671 25.2117 11.1759 25.2054 11.1835C25.1991 11.191 25.1912 11.197 25.1824 11.2012C25.1735 11.2053 25.1639 11.2075 25.1541 11.2075L20.1651 11.2055C20.152 11.2055 20.1392 11.2013 20.1285 11.1934C20.1179 11.1854 20.1099 11.1742 20.1059 11.1614Z" fill="white"/>
<path d="M9.0836 18.6288C7.58604 17.682 6.6514 16.2845 6.27969 14.4363C6.21205 14.1002 6.17555 13.5155 6.17019 12.6823C6.14943 9.1503 6.13335 5.62398 6.12197 2.10334C6.1213 2.06125 6.13971 2.03017 6.17722 2.01013C7.38478 1.36734 8.66802 0.957078 10.0269 0.779342C10.0879 0.771324 10.1184 0.798053 10.1184 0.859525C10.1137 5.06973 10.1073 9.29463 10.0993 13.5342C10.0953 15.3694 12.0834 16.531 13.7049 15.6149C15.1576 14.7941 15.26 12.6031 13.7762 11.7382C12.9695 11.2681 11.998 11.2851 11.1943 11.7773C11.1865 11.7821 11.1775 11.7848 11.1683 11.785C11.1591 11.7852 11.15 11.7829 11.142 11.7784C11.134 11.7739 11.1273 11.7673 11.1228 11.7593C11.1182 11.7514 11.1158 11.7423 11.116 11.7332L11.122 7.31515C11.122 7.25768 11.1508 7.22427 11.2084 7.21492C13.2752 6.88016 15.0638 7.31247 16.5741 8.51186C19.3227 10.6938 19.7617 14.6468 17.4903 17.3278C15.3946 19.8024 11.8132 20.3537 9.0836 18.6288Z" fill="white"/>
<path d="M25.1525 15.8703C23.5762 23.1427 16.144 27.6289 8.97601 25.3988C2.89905 23.5076 -1.00191 17.3667 0.225743 11.0163C0.830527 7.8912 2.44194 4.94953 4.87916 2.85078C4.88455 2.84619 4.89115 2.84324 4.89817 2.84227C4.90519 2.8413 4.91234 2.84235 4.91878 2.8453C4.92522 2.84825 4.93068 2.85297 4.93452 2.85892C4.93836 2.86486 4.94041 2.87177 4.94044 2.87884C4.96522 6.39948 4.99302 9.90943 5.02383 13.4087C5.07205 19.0114 11.0827 22.6446 16.0717 20.179C17.9229 19.2643 19.2396 17.7833 20.0219 15.736C20.0399 15.6865 20.0754 15.6625 20.1283 15.6638L25.0972 15.8001C25.1057 15.8004 25.1141 15.8025 25.1217 15.8063C25.1293 15.8102 25.136 15.8156 25.1413 15.8223C25.1465 15.829 25.1503 15.8368 25.1522 15.845C25.1541 15.8533 25.1542 15.8619 25.1525 15.8703Z" fill="white"/>
<path d="M64.4566 10.661C65.4331 9.42415 67.4212 9.03026 68.8398 9.56347C70.2382 10.0887 71.0499 11.3174 71.068 12.8158C71.0982 15.2179 71.1002 17.619 71.074 20.0191C71.074 20.0659 71.0503 20.0893 71.0027 20.0893L68.5444 20.0953C68.5333 20.0953 68.5223 20.0931 68.512 20.0888C68.5018 20.0845 68.4925 20.0782 68.4847 20.0703C68.4769 20.0623 68.4708 20.0529 68.4668 20.0426C68.4627 20.0323 68.4607 20.0212 68.461 20.0101C68.5072 18.0236 68.5002 16.0405 68.4399 14.0607C68.4128 13.1757 68.2531 12.2455 67.3348 11.8587C66.4558 11.4888 65.2975 11.9679 65.2663 13.0333C65.2659 13.0431 65.2629 13.0526 65.2578 13.0608C65.2526 13.0691 65.2454 13.076 65.2368 13.0807C65.2283 13.0854 65.2186 13.0879 65.2088 13.0878C65.199 13.0878 65.1894 13.0852 65.1809 13.0804C64.8849 12.9121 64.6515 12.6819 64.4807 12.3899C64.4774 12.3841 64.4723 12.3796 64.4661 12.3771C64.46 12.3746 64.4532 12.3741 64.4468 12.3758C64.4404 12.3775 64.4347 12.3813 64.4307 12.3866C64.4266 12.3918 64.4244 12.3983 64.4244 12.4049L64.4254 19.9961C64.4254 20.0622 64.3923 20.0953 64.326 20.0953L61.8626 20.0933C61.8547 20.0933 61.8469 20.0917 61.8396 20.0887C61.8323 20.0856 61.8256 20.0811 61.82 20.0754C61.8144 20.0697 61.81 20.063 61.807 20.0556C61.8039 20.0482 61.8024 20.0402 61.8024 20.0322C61.8024 15.8868 61.8054 11.733 61.8114 7.57096C61.8134 6.09361 63.1546 5.58847 64.3742 5.56642C64.381 5.56628 64.3878 5.56751 64.3941 5.57002C64.4005 5.57253 64.4062 5.57627 64.4111 5.58103C64.416 5.58579 64.4198 5.59147 64.4225 5.59774C64.4251 5.604 64.4265 5.61074 64.4265 5.61753L64.4244 10.6499C64.4244 10.6847 64.4352 10.6883 64.4566 10.661Z" fill="white"/>
<path d="M75.8395 19.0235C75.8351 19.0201 75.8299 19.018 75.8245 19.0174C75.819 19.0168 75.8135 19.0178 75.8086 19.0202C75.8036 19.0226 75.7995 19.0264 75.7966 19.031C75.7937 19.0357 75.7922 19.0411 75.7922 19.0466L75.7973 19.9947C75.7973 20.0071 75.7948 20.0193 75.7901 20.0308C75.7855 20.0422 75.7786 20.0526 75.7699 20.0613C75.7612 20.0701 75.7509 20.077 75.7396 20.0818C75.7282 20.0865 75.7161 20.0889 75.7038 20.0889L73.2345 20.0849C73.2139 20.0849 73.1943 20.0768 73.1798 20.0623C73.1653 20.0478 73.1571 20.0282 73.1571 20.0077C73.1591 15.9065 73.1631 11.8025 73.1692 7.69586C73.1702 6.25961 74.5113 5.64321 75.735 5.56203C75.7429 5.56148 75.751 5.5626 75.7585 5.56532C75.766 5.56804 75.7729 5.57231 75.7788 5.57786C75.7846 5.58341 75.7893 5.59012 75.7925 5.59756C75.7956 5.60501 75.7973 5.61304 75.7973 5.62116C75.7932 8.3019 75.7939 10.9843 75.7993 13.6684C75.8013 14.7949 75.8696 15.5567 76.2875 16.4798C77.045 18.1495 79.2341 18.4402 80.513 17.1844C81.4432 16.2703 81.607 14.7418 81.1459 13.5591C80.5029 11.9104 78.9236 11.4774 77.3333 11.9505C76.9683 12.0594 76.6572 12.2609 76.4 12.5549C76.3937 12.5621 76.3856 12.5675 76.3765 12.5705C76.3674 12.5735 76.3577 12.5741 76.3483 12.5722C76.3389 12.5703 76.3301 12.5659 76.323 12.5595C76.3159 12.5531 76.3105 12.5449 76.3076 12.5358C75.8666 11.2038 76.5387 9.92992 77.8618 9.50496C79.3024 9.0409 80.963 9.523 82.1033 10.5022C85.2578 13.2144 84.4883 19.1879 80.1774 20.2252C78.5178 20.6241 77.1585 20.109 75.8395 19.0235Z" fill="white"/>
<path d="M101.292 19.0737L101.306 19.9717C101.306 19.9865 101.304 20.0012 101.298 20.0149C101.293 20.0286 101.284 20.0411 101.274 20.0517C101.263 20.0622 101.251 20.0706 101.237 20.0763C101.223 20.082 101.209 20.085 101.194 20.085L98.7875 20.084C98.7656 20.084 98.7447 20.0753 98.7292 20.0599C98.7138 20.0445 98.7051 20.0236 98.7051 20.0018C98.7038 15.9152 98.7038 11.8132 98.7051 7.69589C98.7061 6.34483 100.029 5.57509 101.26 5.5801C101.273 5.58036 101.286 5.58576 101.295 5.59513C101.304 5.6045 101.309 5.6171 101.309 5.63022C101.304 8.22008 101.303 10.8069 101.308 13.3908C101.311 14.7148 101.387 15.7682 101.971 16.7855C102.749 18.1426 104.729 18.2929 105.865 17.3478C107.655 15.8574 107.16 12.3454 104.692 11.8363C103.963 11.6869 102.536 11.7862 102.023 12.4737C101.908 12.6287 101.83 12.612 101.788 12.4236C101.321 10.3128 103.007 9.18025 104.909 9.34663C107.218 9.54909 108.978 11.3682 109.433 13.5582C109.978 16.1721 108.89 19.0927 106.231 20.0679C104.517 20.6963 102.73 20.2644 101.392 19.0286C101.324 18.9651 101.291 18.9801 101.292 19.0737Z" fill="white"/>
<path d="M35.6874 11.8677C33.4351 10.9165 30.6251 12.2736 30.8693 15.0419C31.031 16.887 32.4465 17.9785 34.3382 17.8061C35.2374 17.7249 35.9255 17.304 36.5082 16.6485C36.5357 16.6184 36.5658 16.6154 36.5986 16.6395L38.4401 17.9835C38.449 17.9902 38.4565 17.9984 38.4622 18.0079C38.4679 18.0173 38.4717 18.0277 38.4734 18.0385C38.475 18.0493 38.4746 18.0603 38.472 18.0708C38.4694 18.0813 38.4647 18.0912 38.4582 18.0998C37.6223 19.233 36.5243 19.9172 35.164 20.1524C33.5064 20.4391 31.7071 20.1434 30.377 19.1031C27.9327 17.1917 27.6545 13.4082 29.6275 11.0558C30.4399 10.087 31.5065 9.46991 32.8273 9.20465C34.6095 8.84784 37.4244 9.30688 37.8916 11.5059C38.0322 12.1684 37.7861 12.906 37.1964 13.2869C37.1866 13.2933 37.1755 13.2975 37.1639 13.299C37.1523 13.3005 37.1405 13.2993 37.1295 13.2955C37.1184 13.2917 37.1083 13.2854 37.1001 13.2772C37.0918 13.2689 37.0856 13.2589 37.0818 13.2478C36.8448 12.5633 36.3696 12.1563 35.6874 11.8677Z" fill="white"/>
<path d="M48.1747 19.0016C48.1745 18.9954 48.1726 18.9893 48.1691 18.9841C48.1656 18.9789 48.1608 18.9749 48.1551 18.9724C48.1495 18.97 48.1432 18.9693 48.1373 18.9703C48.1313 18.9714 48.1258 18.9743 48.1215 18.9786C45.2954 21.6847 41.0318 20.1753 40.0131 16.5912C39.3511 14.2609 39.9277 11.7071 41.8365 10.1656C42.803 9.38484 43.9794 8.98493 45.2091 9.07714C46.8345 9.20042 48.248 10.6056 47.6563 12.3425C47.6531 12.3517 47.6474 12.3598 47.64 12.3661C47.6326 12.3724 47.6236 12.3767 47.6141 12.3784C47.6045 12.3801 47.5946 12.3793 47.5854 12.376C47.5763 12.3727 47.5681 12.367 47.5619 12.3596C47.3516 12.1023 47.082 11.9142 46.7532 11.7953C45.1468 11.211 43.5122 11.665 42.7738 13.2075C41.9571 14.9134 42.6583 17.4281 44.7298 17.8229C47.0666 18.269 48.0923 16.3306 48.1385 14.3371C48.176 12.7201 48.1881 11.082 48.1747 9.42292C48.174 9.36412 48.2069 9.33506 48.2732 9.33573L50.839 9.33673C50.8481 9.33673 50.8571 9.33852 50.8655 9.34199C50.8739 9.34547 50.8815 9.35056 50.888 9.35698C50.8944 9.3634 50.8995 9.37103 50.903 9.37942C50.9065 9.38781 50.9083 9.3968 50.9083 9.40588L50.9073 20.0239C50.9073 20.0431 50.8997 20.0614 50.8861 20.075C50.8725 20.0885 50.8541 20.0961 50.8349 20.0961L48.2782 20.0951C48.2146 20.0951 48.1824 20.063 48.1817 19.9989L48.1747 19.0016Z" fill="white"/>
<path d="M55.5056 12.1986C55.5076 12.5874 55.9286 12.829 56.234 12.9773C57.6947 13.6869 59.4679 14.3254 60.0053 16.0513C60.4906 17.6068 59.724 19.2165 58.2091 19.876C56.244 20.7319 53.9726 20.2197 52.6284 18.5379C52.5782 18.4758 52.5802 18.4153 52.6344 18.3565L54.1755 16.6988C54.1799 16.6941 54.1852 16.6904 54.1912 16.6879C54.1971 16.6854 54.2035 16.6841 54.2099 16.6842C54.2163 16.6843 54.2227 16.6857 54.2285 16.6884C54.2343 16.6911 54.2396 16.695 54.2438 16.6998C54.9129 17.4605 55.8633 18.0017 56.9141 17.7982C57.6877 17.6489 57.7921 16.8691 57.2456 16.3861C56.9905 16.1602 56.7082 15.9745 56.3987 15.8288C55.3067 15.3116 53.9394 14.608 53.3266 13.5657C52.3943 11.9821 53.1759 10.0748 54.8747 9.40223C56.0481 8.93785 57.1763 8.96491 58.2593 9.48341C59.059 9.86628 59.5613 10.8044 59.2398 11.6543C59.0985 12.0272 58.8323 12.3429 58.4411 12.6015C58.3742 12.6456 58.3209 12.6325 58.2814 12.5624C57.8829 11.8428 57.243 11.4936 56.3616 11.515C55.9778 11.525 55.5036 11.7656 55.5056 12.1986Z" fill="white"/>
<path d="M93.9236 18.9672C93.9235 18.9618 93.9218 18.9565 93.9187 18.952C93.9157 18.9475 93.9114 18.944 93.9065 18.9419C93.9015 18.9398 93.896 18.9392 93.8906 18.9401C93.8853 18.941 93.8803 18.9434 93.8764 18.9471C91.629 21.115 88.1751 20.7121 86.4562 18.1383C85.6706 16.9616 85.3833 15.4863 85.5068 14.0871C85.7449 11.399 87.924 8.93945 90.7721 9.07877C92.5703 9.16697 93.9095 10.4789 93.4102 12.3522C93.4069 12.3641 93.4003 12.3749 93.3912 12.3833C93.382 12.3917 93.3707 12.3973 93.3586 12.3995C93.3465 12.4017 93.334 12.4004 93.3227 12.3958C93.3114 12.3911 93.3016 12.3833 93.2947 12.3732C92.9109 11.837 92.0982 11.6275 91.4874 11.5674C88.4001 11.2627 87.3152 14.8719 88.9135 16.9346C89.6429 17.8757 91.2774 18.1603 92.3212 17.584C93.7076 16.8183 93.9266 14.8929 93.9226 13.5078C93.9185 12.1554 93.9202 10.7816 93.9276 9.38647C93.9276 9.35038 93.9457 9.33234 93.9818 9.33234L96.5517 9.33134C96.5714 9.33134 96.5903 9.33916 96.6042 9.35306C96.6182 9.36697 96.626 9.38584 96.626 9.40551L96.627 20.0175C96.627 20.0333 96.6207 20.0485 96.6094 20.0597C96.5981 20.071 96.5828 20.0774 96.5667 20.0777L94.015 20.0897C94.0038 20.0898 93.9927 20.0877 93.9824 20.0835C93.972 20.0793 93.9626 20.073 93.9547 20.0651C93.9467 20.0572 93.9404 20.0478 93.9361 20.0373C93.9318 20.0269 93.9296 20.0158 93.9296 20.0045L93.9236 18.9672Z" fill="white"/>
<path d="M119.465 19.005C119.465 18.9967 119.463 18.9886 119.458 18.9816C119.454 18.9746 119.448 18.9691 119.44 18.9658C119.432 18.9625 119.424 18.9615 119.416 18.963C119.407 18.9644 119.4 18.9682 119.394 18.974C116.805 21.4375 112.739 20.4242 111.482 17.1729C110.547 14.7554 110.992 11.936 113.024 10.2271C114.194 9.24192 116.069 8.66862 117.549 9.34315C118.621 9.83225 119.408 11.1372 118.923 12.3419C118.919 12.3504 118.914 12.3579 118.907 12.3637C118.9 12.3695 118.891 12.3733 118.883 12.375C118.874 12.3766 118.864 12.3759 118.856 12.3729C118.847 12.3699 118.839 12.3648 118.833 12.358C118.074 11.5111 116.467 11.3357 115.465 11.7877C112.78 12.9974 113.23 17.6981 116.438 17.8685C118.648 17.9867 119.4 15.9772 119.43 14.134C119.456 12.5411 119.464 10.9601 119.454 9.39126C119.454 9.38341 119.455 9.37561 119.458 9.36832C119.461 9.36103 119.466 9.3544 119.471 9.3488C119.477 9.3432 119.484 9.33876 119.491 9.33572C119.499 9.33268 119.506 9.33112 119.514 9.33112L122.094 9.33713C122.112 9.3374 122.129 9.34469 122.142 9.35745C122.155 9.3702 122.162 9.38738 122.162 9.40529V20.0203C122.162 20.0357 122.155 20.0505 122.145 20.0614C122.134 20.0723 122.119 20.0785 122.103 20.0785L119.535 20.0905C119.524 20.0905 119.513 20.0883 119.503 20.0841C119.493 20.0798 119.484 20.0736 119.476 20.0658C119.468 20.0579 119.462 20.0487 119.458 20.0384C119.454 20.0282 119.452 20.0173 119.452 20.0063L119.465 19.005Z" fill="white"/>
</svg>
