<svg width="42" height="38" viewBox="0 0 42 38" fill="none" xmlns="http://www.w3.org/2000/svg">
<path d="M20.7474 8.08861C22.7402 8.08861 24.3556 6.44692 24.3556 4.42181C24.3556 2.39669 22.7402 0.755005 20.7474 0.755005C18.7546 0.755005 17.1392 2.39669 17.1392 4.42181C17.1392 6.44692 18.7546 8.08861 20.7474 8.08861Z" fill="white"/>
<path d="M3.60823 25.4913C5.601 25.4913 7.21646 23.8496 7.21646 21.8245C7.21646 19.7994 5.601 18.1577 3.60823 18.1577C1.61546 18.1577 0 19.7994 0 21.8245C0 23.8496 1.61546 25.4913 3.60823 25.4913Z" fill="white"/>
<path d="M8.64387 13.1977C10.6366 13.1977 12.2521 11.5561 12.2521 9.53094C12.2521 7.50582 10.6366 5.86414 8.64387 5.86414C6.65111 5.86414 5.03564 7.50582 5.03564 9.53094C5.03564 11.5561 6.65111 13.1977 8.64387 13.1977Z" fill="white"/>
<path d="M32.8678 13.1977C34.8605 13.1977 36.476 11.5561 36.476 9.53094C36.476 7.50582 34.8605 5.86414 32.8678 5.86414C30.875 5.86414 29.2595 7.50582 29.2595 9.53094C29.2595 11.5561 30.875 13.1977 32.8678 13.1977Z" fill="white"/>
<path d="M8.64387 37.815C10.6366 37.815 12.2521 36.1734 12.2521 34.1482C12.2521 32.1231 10.6366 30.4814 8.64387 30.4814C6.65111 30.4814 5.03564 32.1231 5.03564 34.1482C5.03564 36.1734 6.65111 37.815 8.64387 37.815Z" fill="white"/>
<path d="M32.8678 37.815C34.8605 37.815 36.476 36.1734 36.476 34.1482C36.476 32.1231 34.8605 30.4814 32.8678 30.4814C30.875 30.4814 29.2595 32.1231 29.2595 34.1482C29.2595 36.1734 30.875 37.815 32.8678 37.815Z" fill="white"/>
<path d="M37.9046 25.4913C39.8974 25.4913 41.5128 23.8496 41.5128 21.8245C41.5128 19.7994 39.8974 18.1577 37.9046 18.1577C35.9118 18.1577 34.2964 19.7994 34.2964 21.8245C34.2964 23.8496 35.9118 25.4913 37.9046 25.4913Z" fill="white"/>
</svg>
