<svg width="101" height="45" viewBox="0 0 101 45" fill="none" xmlns="http://www.w3.org/2000/svg">
<path d="M34.5139 12.6219L34.5222 23.2245C34.5222 23.2405 34.519 23.2564 34.5128 23.2712C34.5065 23.2859 34.4974 23.2994 34.4859 23.3107C34.4744 23.322 34.4607 23.331 34.4457 23.3371C34.4306 23.3433 34.4145 23.3464 34.3982 23.3464L29.4844 23.3547C29.4449 23.3547 29.4071 23.339 29.3792 23.3111C29.3513 23.2832 29.3356 23.2454 29.3356 23.2059V12.5764C29.3356 12.5401 29.3211 12.5052 29.2951 12.4793C29.2692 12.4534 29.234 12.4385 29.1971 12.438C22.4814 12.4187 15.8028 12.4166 9.16149 12.4318C8.57257 12.4339 7.98986 12.4132 7.9258 13.1261C7.91977 13.195 7.92817 13.2645 7.95049 13.33C7.9728 13.3955 8.00852 13.4557 8.05538 13.5066C8.10224 13.5576 8.1592 13.5982 8.22264 13.6259C8.28607 13.6536 8.35458 13.6677 8.4238 13.6675C12.1033 13.6482 15.787 13.6627 19.4748 13.7109C20.727 13.7274 21.9813 14.0484 23.2377 14.6738C24.9631 15.5314 26.0872 16.7629 26.0025 18.7198C25.8455 22.3256 21.2684 23.3196 18.4395 23.3299C12.8892 23.3519 7.46362 23.3547 2.16266 23.3381C1.70255 23.3368 1.63298 23.1708 1.95395 22.8402L4.97087 19.7323C5.02897 19.6722 5.09879 19.6244 5.17618 19.5917C5.25357 19.5591 5.33695 19.5422 5.42134 19.5422C9.86406 19.5505 14.2903 19.5532 18.6999 19.5505C19.3074 19.5505 19.8674 19.4065 20.3799 19.1186C20.7498 18.9099 20.9151 18.4078 20.5762 18.0957C19.8819 17.4552 18.2102 17.4345 17.1377 17.4428C14.6636 17.4579 12.1901 17.4572 9.71735 17.4407C7.32655 17.4262 3.97074 17.1287 2.37963 15.2235C1.49728 14.1675 1.61094 12.0578 2.46022 11.0143C4.00587 9.10698 6.469 9.00366 8.75855 9.00366C20.3041 9.00504 31.8676 9.00504 43.449 9.00366C43.4657 9.00392 43.4818 9.00965 43.495 9.01997C43.5081 9.03029 43.5176 9.04463 43.5218 9.06081C43.526 9.07698 43.5248 9.0941 43.5184 9.10953C43.5119 9.12496 43.5006 9.13785 43.4862 9.14624C42.2856 9.80335 41.178 11.2436 40.2543 12.2458C40.1761 12.3299 40.0816 12.397 39.9767 12.4429C39.8718 12.4888 39.7588 12.5124 39.6448 12.5124L34.6172 12.5186C34.5484 12.5186 34.5139 12.553 34.5139 12.6219Z" fill="white"/>
<path d="M51.3431 13.4631L49.564 16.2569C49.5453 16.286 49.5202 16.3105 49.4905 16.3288C49.4608 16.347 49.4273 16.3584 49.3925 16.3622L45.3196 16.7776C45.2955 16.7802 45.2726 16.7899 45.2539 16.8054C45.2352 16.8209 45.2216 16.8415 45.2147 16.8647C45.2078 16.8878 45.208 16.9123 45.2153 16.9351C45.2226 16.9578 45.2366 16.9778 45.2556 16.9925L47.2248 18.5361C47.3034 18.5976 47.3607 18.6822 47.3889 18.7782C47.417 18.8741 47.4146 18.9766 47.3819 19.0713L45.9375 23.2288C45.9181 23.2849 45.8817 23.3335 45.8332 23.368C45.7846 23.4024 45.7265 23.4209 45.6668 23.421L36.5189 23.4293C36.5021 23.4295 36.4855 23.4249 36.4711 23.416C36.4568 23.4072 36.4453 23.3944 36.4379 23.3792C36.4305 23.3641 36.4276 23.3471 36.4295 23.3304C36.4314 23.3136 36.4381 23.2977 36.4487 23.2846C39.9725 18.7152 43.4985 14.1354 47.0265 9.54525C47.2868 9.20843 47.6299 9.00179 48.0927 9.00179C50.4525 8.99628 52.8123 8.99559 55.1721 8.99973C55.4394 8.99973 55.7239 9.20292 56.0256 9.60931C58.2022 12.5394 60.3808 15.4675 62.5615 18.3935C63.0161 19.001 63.1835 19.6871 63.603 20.276C64.3179 21.283 65.0605 22.2831 65.8305 23.2764C65.8412 23.2907 65.8477 23.3077 65.8493 23.3255C65.8509 23.3433 65.8475 23.3612 65.8396 23.3772C65.8317 23.3932 65.8196 23.4067 65.8045 23.4163C65.7894 23.4258 65.7719 23.4311 65.7541 23.4313L57.0877 23.421C57.0152 23.421 56.9444 23.3992 56.8843 23.3583C56.8242 23.3174 56.7778 23.2593 56.7509 23.1916L55.1825 19.2407C55.1611 19.1871 55.1578 19.1279 55.173 19.072C55.1883 19.0161 55.2214 18.9665 55.2672 18.9308L57.6725 17.0627C57.6864 17.0516 57.6968 17.0366 57.7022 17.0195C57.7077 17.0025 57.708 16.9843 57.7031 16.9671C57.6983 16.9499 57.6885 16.9345 57.6749 16.9229C57.6614 16.9112 57.6447 16.9038 57.627 16.9016L53.6926 16.4904C53.6222 16.4833 53.5544 16.4595 53.4948 16.4211C53.4351 16.3827 53.3854 16.3306 53.3496 16.2693L51.713 13.4714C51.5945 13.2661 51.4713 13.2634 51.3431 13.4631Z" fill="white"/>
<path d="M88.3286 18.8745C88.3074 18.8804 88.2883 18.8921 88.2736 18.9085C88.2588 18.9248 88.2491 18.945 88.2454 18.9667C88.2417 18.9883 88.2442 19.0106 88.2528 19.0309C88.2613 19.0512 88.2754 19.0686 88.2935 19.0811L94.2158 23.1168C94.2456 23.1376 94.268 23.1674 94.2797 23.2019C94.2915 23.2363 94.292 23.2735 94.2812 23.3083C94.2704 23.343 94.2488 23.3734 94.2196 23.3951C94.1904 23.4167 94.155 23.4285 94.1186 23.4288C91.7795 23.4233 89.4052 23.4219 86.9958 23.4247C86.6101 23.4247 86.3063 23.3489 86.0846 23.1974C84.4011 22.0457 82.7653 20.9154 81.1769 19.8064C81.0464 19.7163 80.8914 19.668 80.7326 19.668L73.2255 19.6659C73.1469 19.6659 73.1077 19.7052 73.1077 19.7837L73.0953 23.2552C73.0954 23.2895 73.0826 23.3224 73.0596 23.3474C73.0365 23.3724 73.0049 23.3874 72.9713 23.3895C71.1556 23.5094 69.34 23.5073 67.5243 23.3833C67.4554 23.3792 67.421 23.342 67.421 23.2718L67.4251 16.1407C67.4251 16.0622 67.4651 16.0229 67.545 16.0229C72.8611 16.0229 78.1731 16.0181 83.4809 16.0084C84.5472 16.0064 86.2664 15.7873 86.6714 14.655C87.312 12.8593 84.2475 12.5658 83.2247 12.5679C76.2362 12.5762 69.2842 12.5796 62.3687 12.5782C62.2983 12.5783 62.229 12.5618 62.1665 12.5302C62.104 12.4986 62.05 12.4528 62.0091 12.3964C61.2611 11.3735 60.449 9.96427 59.4592 9.17491C59.4436 9.16197 59.4323 9.14453 59.4268 9.12495C59.4214 9.10537 59.4221 9.0846 59.4289 9.06544C59.4356 9.04628 59.4481 9.02965 59.4646 9.01782C59.4812 9.00599 59.5009 8.99951 59.5212 8.99927C67.5222 9.00065 75.5095 9.00202 83.483 9.0034C86.4875 9.00547 89.4404 9.26996 91.3848 11.231C93.0483 12.9089 92.8313 15.6324 91.1906 17.2338C90.3626 18.0424 89.4087 18.5893 88.3286 18.8745Z" fill="white"/>
<path d="M93.9767 25.0977H1.70857C1.67091 25.0977 1.64038 25.1282 1.64038 25.1659V25.265C1.64038 25.3027 1.67091 25.3332 1.70857 25.3332H93.9767C94.0143 25.3332 94.0448 25.3027 94.0448 25.265V25.1659C94.0448 25.1282 94.0143 25.0977 93.9767 25.0977Z" fill="white"/>
<path d="M65.7975 26.6008C65.8364 26.6008 65.8737 26.6163 65.9012 26.6438C65.9287 26.6713 65.9442 26.7086 65.9442 26.7475L65.9525 30.6323C65.953 30.9671 65.9462 31.2986 65.9323 31.6079C65.9183 31.9172 65.8976 32.1981 65.8714 32.4348C65.8451 32.6714 65.8137 32.859 65.779 32.9869C65.7444 33.1148 65.7071 33.1805 65.6694 33.1802H65.5536C65.4775 33.1796 65.4041 32.9109 65.3494 32.4331C65.2948 31.9554 65.2635 31.3077 65.2623 30.6323L65.254 26.7475C65.254 26.7086 65.2695 26.6713 65.297 26.6438C65.3245 26.6163 65.3618 26.6008 65.4007 26.6008H65.7975Z" fill="white"/>
<path d="M7.79944 27.3418C6.95842 27.195 4.37958 27.0297 4.29279 28.1787C4.18809 29.581 4.17983 30.7003 4.26799 31.5365C4.40437 32.8259 6.63193 32.4726 7.64033 32.4375C8.66112 32.4003 8.68798 31.8961 8.70865 31.0406C8.70891 31.0221 8.71287 31.0039 8.72028 30.987C8.72769 30.97 8.73842 30.9547 8.75186 30.9418C8.76529 30.929 8.78116 30.9188 8.79856 30.912C8.81597 30.9052 8.83457 30.9019 8.85329 30.9021L9.51867 30.9166C9.58893 30.918 9.63025 30.9531 9.64265 31.022C9.74873 31.6143 9.63852 32.1041 9.31203 32.4912C8.55367 33.3963 5.54708 33.2144 4.69367 33.0078C2.92691 32.578 3.27613 30.4413 3.29473 29.0527C3.30299 28.3805 3.37325 27.9066 3.5055 27.6311C4.10475 26.3871 6.71459 26.5834 7.84697 26.6537C9.00965 26.7253 9.57308 27.3459 9.53727 28.5155C9.5365 28.5493 9.52354 28.5818 9.50076 28.6068C9.47798 28.6319 9.44691 28.6479 9.41328 28.6518L8.80577 28.7283C8.78518 28.7309 8.76428 28.7288 8.74461 28.7221C8.72493 28.7154 8.70699 28.7043 8.69211 28.6896C8.67724 28.6749 8.6658 28.657 8.65864 28.6373C8.65149 28.6175 8.64881 28.5964 8.65079 28.5754C8.71691 27.9121 8.50614 27.4637 7.79944 27.3418Z" fill="white"/>
<path d="M18.1068 27.3294C18.2803 27.3294 18.4209 27.1887 18.4209 27.0153C18.4209 26.8418 18.2803 26.7012 18.1068 26.7012C17.9333 26.7012 17.7927 26.8418 17.7927 27.0153C17.7927 27.1887 17.9333 27.3294 18.1068 27.3294Z" fill="white"/>
<path d="M89.1425 29.9742C89.5867 29.5506 90.374 28.1826 91.0373 28.3727C91.2963 28.4471 91.339 28.587 91.1655 28.7922L89.7066 30.5115C89.677 30.5465 89.661 30.591 89.6614 30.6369C89.6618 30.6827 89.6785 30.7269 89.7087 30.7615L91.4134 32.6998C91.5829 32.8926 91.5429 33.0194 91.2936 33.08C90.5125 33.268 89.6611 31.8587 89.221 31.3359C89.2065 31.3184 89.1883 31.3043 89.1676 31.2946C89.147 31.285 89.1245 31.2801 89.1017 31.2803C89.0789 31.2805 89.0565 31.2858 89.036 31.2958C89.0155 31.3058 88.9975 31.3202 88.9834 31.338C88.4316 32.0282 87.7477 33.299 86.7227 33.0717C86.6112 33.0469 86.5932 32.9911 86.669 32.9043L88.5267 30.7739C88.5606 30.7355 88.5795 30.6863 88.5799 30.6353C88.5803 30.5844 88.5621 30.5352 88.5288 30.497L86.9604 28.6682C86.9404 28.6453 86.9266 28.6176 86.9203 28.5878C86.9141 28.558 86.9156 28.5271 86.9247 28.4981C86.9338 28.4691 86.9503 28.4429 86.9724 28.422C86.9946 28.4011 87.0218 28.3863 87.0513 28.3789C87.8654 28.1785 88.5515 29.4121 88.9834 29.9639C89.0316 30.0259 89.0846 30.0293 89.1425 29.9742Z" fill="white"/>
<path d="M30.2641 29.0853C29.5719 28.8621 27.8816 28.8394 27.8609 29.947C27.8417 30.9623 27.7962 31.9762 27.7246 32.9887C27.7191 33.0617 27.6791 33.1003 27.6047 33.1044L27.2348 33.123C27.1095 33.1285 27.0461 33.0686 27.0447 32.9432L26.9931 28.6307C26.9917 28.4984 27.0571 28.4323 27.1894 28.4323C27.4442 28.4337 27.6653 28.517 27.8527 28.6824C27.8775 28.7047 27.908 28.7196 27.9405 28.7255C27.973 28.7313 28.0063 28.7278 28.0366 28.7154C29.2248 28.2298 31.5308 28.0211 31.6259 29.8602C31.6782 30.8975 31.6459 31.9335 31.5288 32.968C31.5191 33.0438 31.4757 33.0831 31.3986 33.0858L31.008 33.1003C30.9775 33.1009 30.9479 33.0898 30.9255 33.0694C30.9032 33.0489 30.8898 33.0207 30.8882 32.9908C30.8386 31.919 30.7993 30.8493 30.7704 29.7817C30.7601 29.4283 30.6154 29.199 30.2641 29.0853Z" fill="white"/>
<path d="M40.3189 31.1064C39.9759 32.9806 41.6042 32.7781 42.8192 32.6046C43.2635 32.5405 43.466 32.2925 43.4722 31.8586C43.4724 31.8363 43.4772 31.8143 43.4863 31.794C43.4954 31.7737 43.5086 31.7555 43.5251 31.7406C43.5416 31.7256 43.5611 31.7142 43.5822 31.7072C43.6033 31.7001 43.6256 31.6975 43.6478 31.6995L44.0962 31.7305C44.1692 31.736 44.2106 31.7746 44.2202 31.8462C44.4516 33.5737 42.2117 33.2885 41.0731 33.2224C39.2092 33.115 39.3869 31.6644 39.42 30.2964C39.4434 29.3707 39.7968 28.7914 40.4801 28.5586C41.162 28.3251 42.5051 28.3354 43.2903 28.5421C44.2388 28.7941 44.3525 29.9327 44.2347 30.8833C44.2307 30.9151 44.215 30.9444 44.1907 30.9657C44.1664 30.9869 44.135 30.9988 44.1024 30.999L40.4325 31.0114C40.3678 31.0127 40.3299 31.0444 40.3189 31.1064ZM40.4325 30.4307L43.2593 30.4142C43.2973 30.4136 43.3336 30.3982 43.3603 30.3711C43.387 30.344 43.4019 30.3075 43.4019 30.2695V29.9658C43.4011 29.8374 43.3736 29.7105 43.321 29.5922C43.2683 29.4739 43.1915 29.3666 43.095 29.2764C42.9985 29.1862 42.8841 29.1149 42.7584 29.0665C42.6328 29.0182 42.4982 28.9937 42.3625 28.9946L41.3128 28.9987C41.0388 29.0004 40.7767 29.105 40.5841 29.2895C40.3915 29.4739 40.2842 29.7231 40.2858 29.9823V30.2861C40.2858 30.3052 40.2896 30.3242 40.297 30.3419C40.3044 30.3596 40.3153 30.3756 40.3289 30.3891C40.3426 30.4026 40.3588 30.4132 40.3765 30.4203C40.3943 30.4275 40.4134 30.431 40.4325 30.4307Z" fill="white"/>
<path d="M75.3521 31.0154C75.2571 31.0168 75.2006 31.0643 75.1827 31.158C74.8479 32.9557 76.5176 32.7615 77.6396 32.6148C78.0963 32.5548 78.3257 32.3193 78.3546 31.8688C78.3567 31.8317 78.3725 31.7968 78.399 31.7711C78.4255 31.7454 78.4605 31.7309 78.4972 31.7304L78.8361 31.7221C78.8865 31.7212 78.9365 31.7315 78.9824 31.7524C79.0284 31.7733 79.0691 31.8042 79.1015 31.8428C79.134 31.8814 79.1574 31.9268 79.1701 31.9756C79.1828 32.0244 79.1845 32.0755 79.1749 32.125C79.051 32.7574 78.7906 33.028 78.1459 33.1603C77.2015 33.3525 75.1372 33.4434 74.5752 32.6086C74.1536 31.9825 74.2611 30.9183 74.3086 30.0917C74.3789 28.8974 74.9781 28.5481 76.1126 28.418C78.055 28.1948 79.4291 28.5895 79.1398 30.8955C79.1302 30.9658 79.0902 31.0009 79.02 31.0009L75.3521 31.0154ZM75.3583 30.4347L78.0942 30.4141C78.1192 30.4141 78.1439 30.4092 78.167 30.3996C78.19 30.39 78.211 30.376 78.2286 30.3584C78.2463 30.3407 78.2603 30.3198 78.2699 30.2967C78.2794 30.2737 78.2843 30.2489 78.2843 30.224L78.2823 29.9553C78.2816 29.8272 78.2529 29.7005 78.198 29.5824C78.1431 29.4643 78.063 29.3572 77.9623 29.2672C77.8615 29.1772 77.7421 29.1061 77.6109 29.0578C77.4796 29.0096 77.3391 28.9853 77.1974 28.9862L76.2386 28.9945C75.9527 28.9963 75.6791 29.1007 75.478 29.2848C75.2769 29.4688 75.1647 29.7175 75.1662 29.976L75.1682 30.2446C75.1682 30.2951 75.1883 30.3434 75.2239 30.3791C75.2596 30.4147 75.3079 30.4347 75.3583 30.4347Z" fill="white"/>
<path d="M18.1466 28.5969L18.0474 28.5968C17.9459 28.5966 17.8634 28.6788 17.8632 28.7803L17.8562 32.8139C17.856 32.9155 17.9382 32.998 18.0398 32.9981L18.1389 32.9983C18.2405 32.9985 18.323 32.9163 18.3232 32.8147L18.3302 28.7812C18.3304 28.6796 18.2482 28.5971 18.1466 28.5969Z" fill="white"/>
<path d="M53.4548 32.963C53.4452 33.5719 53.4438 34.1829 53.4507 34.7959C53.4535 35.0756 53.242 35.1906 52.8163 35.141C52.6703 35.1245 52.5973 35.0425 52.5973 34.8951L52.6159 28.7642C52.6162 28.7317 52.6243 28.6997 52.6395 28.6711C52.6548 28.6424 52.6767 28.6178 52.7034 28.5993C52.7302 28.5809 52.761 28.5691 52.7932 28.5651C52.8254 28.5611 52.8582 28.5649 52.8887 28.5761L53.5478 28.8262C53.6112 28.8496 53.6753 28.8509 53.74 28.8303C55.015 28.4129 57.1289 28.231 57.3417 30.0908C57.5091 31.5455 57.4347 33.1986 55.4778 33.1821C54.6816 33.1766 54.0431 33.0788 53.5623 32.8887C53.492 32.8611 53.4562 32.8859 53.4548 32.963ZM56.4785 30.1456C56.4794 29.8853 56.3768 29.6353 56.1934 29.4506C56.01 29.2658 55.7607 29.1616 55.5004 29.1607L54.4672 29.157C54.2069 29.1561 53.9568 29.2587 53.7721 29.4421C53.5874 29.6255 53.4831 29.8748 53.4822 30.1351L53.477 31.6188C53.4761 31.8791 53.5787 32.1291 53.7621 32.3138C53.9455 32.4986 54.1948 32.6028 54.4552 32.6037L55.4883 32.6074C55.7487 32.6083 55.9987 32.5057 56.1834 32.3223C56.3681 32.1389 56.4724 31.8896 56.4733 31.6293L56.4785 30.1456Z" fill="white"/>
<path d="M93.9448 35.6858H1.81727C1.75565 35.6858 1.70569 35.7358 1.70569 35.7974V35.8015C1.70569 35.8631 1.75565 35.9131 1.81727 35.9131H93.9448C94.0064 35.9131 94.0564 35.8631 94.0564 35.8015V35.7974C94.0564 35.7358 94.0064 35.6858 93.9448 35.6858Z" fill="white"/>
</svg>
